<mxfile host="app.diagrams.net" modified="2023-07-05T10:07:41.924Z" agent="Mozilla/5.0 (Macintosh; Intel Mac OS X 10_15_7) AppleWebKit/537.36 (KHTML, like Gecko) Chrome/113.0.0.0 Safari/537.36" version="21.5.2" etag="Ehe_-h3e6jFlKcW6fO9E" type="github">
  <diagram name="第 1 页" id="sgXESOF2t7WarvwZu3v1">
    <mxGraphModel>
      <root>
        <mxCell id="0" />
        <mxCell id="1" parent="0" />
      </root>
    </mxGraphModel>
  </diagram>
</mxfile>
